<svg xmlns="http://www.w3.org/2000/svg" viewBox="0 0 1200 630">
  <defs>
    <linearGradient id="ogbg" x1="0" y1="0" x2="1" y2="1">
      <stop offset="0%" stop-color="#0a1628"/>
      <stop offset="50%" stop-color="#0d2244"/>
      <stop offset="100%" stop-color="#0a1628"/>
    </linearGradient>
    <linearGradient id="oground" x1="0" y1="0" x2="0" y2="1">
      <stop offset="0%" stop-color="#3a8a30"/>
      <stop offset="100%" stop-color="#206018"/>
    </linearGradient>
    <radialGradient id="ogglow" cx="50%" cy="55%" r="55%">
      <stop offset="0%" stop-color="#1a4a9a" stop-opacity="0.4"/>
      <stop offset="100%" stop-color="#0a1628" stop-opacity="0"/>
    </radialGradient>
    <linearGradient id="titleGrad" x1="0" y1="0" x2="1" y2="0">
      <stop offset="0%" stop-color="#38bdf8"/>
      <stop offset="100%" stop-color="#818cf8"/>
    </linearGradient>
    <linearGradient id="bL1" x1="0" y1="0" x2="1" y2="0">
      <stop offset="0%" stop-color="#90d0f8"/>
      <stop offset="100%" stop-color="#60a8d8"/>
    </linearGradient>
    <linearGradient id="bR1" x1="1" y1="0" x2="0" y2="0">
      <stop offset="0%" stop-color="#2858a8"/>
      <stop offset="100%" stop-color="#1848a0"/>
    </linearGradient>
    <linearGradient id="bT1" x1="0" y1="0" x2="0" y2="1">
      <stop offset="0%" stop-color="#60b0e8"/>
      <stop offset="100%" stop-color="#3888c0"/>
    </linearGradient>
    <linearGradient id="hL" x1="0" y1="0" x2="1" y2="0">
      <stop offset="0%" stop-color="#f0e8d0"/>
      <stop offset="100%" stop-color="#d8d0b8"/>
    </linearGradient>
    <filter id="ogshad">
      <feDropShadow dx="0" dy="6" stdDeviation="8" flood-color="#000" flood-opacity="0.5"/>
    </filter>
    <filter id="ogtshad">
      <feDropShadow dx="0" dy="2" stdDeviation="4" flood-color="#000" flood-opacity="0.7"/>
    </filter>
  </defs>

  <rect width="1200" height="630" fill="url(#ogbg)"/>
  <rect width="1200" height="630" fill="url(#ogglow)"/>

  <circle cx="80" cy="60" r="2" fill="#ffffff" opacity="0.6"/>
  <circle cx="220" cy="40" r="1.5" fill="#ffffff" opacity="0.4"/>
  <circle cx="400" cy="80" r="1" fill="#ffffff" opacity="0.5"/>
  <circle cx="620" cy="30" r="2" fill="#ffffff" opacity="0.3"/>
  <circle cx="800" cy="55" r="1.5" fill="#ffffff" opacity="0.5"/>
  <circle cx="1000" cy="35" r="1" fill="#ffffff" opacity="0.4"/>
  <circle cx="1120" cy="70" r="2" fill="#ffffff" opacity="0.6"/>

  <polygon points="600,185 920,348 600,510 280,348" fill="url(#oground)" filter="url(#ogshad)"/>
  <polygon points="280,348 600,510 600,532 280,370" fill="#186018"/>
  <polygon points="920,348 600,510 600,532 920,370" fill="#107010"/>
  <polygon points="280,348 920,348 920,362 280,362" fill="#506050"/>
  <line x1="330" y1="355" x2="870" y2="355" stroke="#c8b840" stroke-width="3" stroke-dasharray="28,18"/>

  <rect x="316" y="280" width="9" height="38" fill="#4a3010"/>
  <ellipse cx="320" cy="275" rx="28" ry="21" fill="#2a7828"/>
  <ellipse cx="320" cy="262" rx="20" ry="16" fill="#3aaa38"/>

  <rect x="870" y="272" width="9" height="38" fill="#4a3010"/>
  <ellipse cx="874" cy="267" rx="28" ry="21" fill="#2a7828"/>
  <ellipse cx="874" cy="254" rx="20" ry="16" fill="#3aaa38"/>

  <polygon points="518,202 600,162 600,388 518,428" fill="url(#bL1)"/>
  <polygon points="682,202 600,162 600,388 682,428" fill="url(#bR1)"/>
  <polygon points="518,202 600,162 682,202 600,242" fill="url(#bT1)"/>
  <rect x="526" y="222" width="16" height="22" rx="2" fill="rgba(200,240,255,0.5)"/>
  <rect x="550" y="222" width="16" height="22" rx="2" fill="rgba(200,240,255,0.5)"/>
  <rect x="532" y="252" width="16" height="22" rx="2" fill="rgba(200,240,255,0.45)"/>
  <rect x="556" y="252" width="16" height="22" rx="2" fill="rgba(200,240,255,0.45)"/>
  <rect x="526" y="282" width="16" height="22" rx="2" fill="rgba(200,240,255,0.4)"/>
  <rect x="550" y="282" width="16" height="22" rx="2" fill="rgba(200,240,255,0.4)"/>
  <rect x="526" y="312" width="16" height="22" rx="2" fill="rgba(200,240,255,0.35)"/>
  <rect x="550" y="312" width="16" height="22" rx="2" fill="rgba(200,240,255,0.35)"/>
  <rect x="612" y="222" width="16" height="22" rx="2" fill="rgba(80,140,200,0.42)"/>
  <rect x="636" y="230" width="16" height="22" rx="2" fill="rgba(80,140,200,0.42)"/>
  <rect x="612" y="252" width="16" height="22" rx="2" fill="rgba(80,140,200,0.38)"/>
  <rect x="636" y="260" width="16" height="22" rx="2" fill="rgba(80,140,200,0.38)"/>
  <rect x="612" y="282" width="16" height="22" rx="2" fill="rgba(80,140,200,0.34)"/>
  <rect x="636" y="290" width="16" height="22" rx="2" fill="rgba(80,140,200,0.34)"/>

  <polygon points="342,298 430,258 430,368 342,408" fill="url(#hL)"/>
  <polygon points="518,298 430,258 430,368 518,408" fill="#c8c0a8"/>
  <polygon points="342,298 430,258 518,298 430,338" fill="#d07020"/>
  <polygon points="366,294 430,258 494,294 430,312" fill="#b05010"/>
  <rect x="420" y="346" width="14" height="22" rx="2" fill="#5a3010"/>
  <rect x="352" y="318" width="13" height="13" rx="2" fill="rgba(200,240,255,0.6)"/>
  <rect x="492" y="323" width="13" height="13" rx="2" fill="rgba(160,200,220,0.45)"/>

  <polygon points="682,288 778,244 778,372 682,416" fill="#f8f0e0"/>
  <polygon points="874,288 778,244 778,372 874,416" fill="#e0d8c0"/>
  <polygon points="682,288 778,244 874,288 778,332" fill="#c03020"/>
  <polygon points="704,286 778,244 852,286 778,310" fill="#a02010"/>
  <rect x="692" y="308" width="13" height="17" rx="2" fill="rgba(200,240,255,0.55)"/>
  <rect x="716" y="308" width="13" height="17" rx="2" fill="rgba(200,240,255,0.55)"/>
  <rect x="740" y="318" width="13" height="17" rx="2" fill="rgba(200,240,255,0.5)"/>
  <rect x="806" y="312" width="13" height="17" rx="2" fill="rgba(160,200,220,0.45)"/>
  <rect x="830" y="318" width="13" height="17" rx="2" fill="rgba(160,200,220,0.45)"/>
  <rect x="858" y="230" width="4" height="56" fill="#c0c0c0"/>
  <rect x="862" y="230" width="32" height="13" fill="#e82020"/>
  <rect x="862" y="243" width="32" height="13" fill="#f8f8f8"/>
  <circle cx="860" cy="230" r="5" fill="#d8a020"/>

  <rect x="6" y="0" width="6" height="630" fill="#38bdf8" opacity="0.5"/>
  <rect x="1188" y="0" width="6" height="630" fill="#38bdf8" opacity="0.5"/>

  <rect x="0" y="438" width="1200" height="4" fill="rgba(56,189,248,0.45)"/>
  <rect x="0" y="442" width="1200" height="188" fill="rgba(8,16,34,0.88)"/>

  <text x="600" y="510" font-family="Arial,sans-serif" font-size="70" font-weight="900" fill="#38bdf8" text-anchor="middle" letter-spacing="4" filter="url(#ogtshad)">TRANSMIGRASI: MEMBANGUN NEGERI</text>
  <text x="600" y="558" font-family="Arial,sans-serif" font-size="28" font-weight="500" fill="#94c8f0" text-anchor="middle" letter-spacing="5" opacity="0.9">Game Simulasi Kota - Bangun &amp; Kembangkan Kawasan Transmigranmu</text>
  <rect x="460" y="574" width="280" height="34" rx="17" fill="rgba(56,189,248,0.15)" stroke="rgba(56,189,248,0.35)" stroke-width="1.5"/>
  <text x="600" y="597" font-family="Arial,monospace" font-size="17" font-weight="600" fill="#7dd3fc" text-anchor="middle" letter-spacing="1">gametransmigrasi.web.app</text>
</svg>
